<?xml version="1.0" encoding="UTF-8"?>
<svg id="Layer_2" data-name="Layer 2" xmlns="http://www.w3.org/2000/svg" viewBox="0 0 185.26 185.26">
  <defs>
    <style>
      .cls-1 {
        fill: #3f3f3f;
      }

      .cls-2 {
        fill: #e2e2e2;
      }
    </style>
  </defs>
  <g id="Layer_1-2" data-name="Layer 1">
    <g>
      <rect class="cls-2" x="0" y="0" width="185.26" height="185.26" rx="61.48" ry="61.48" transform="translate(185.26 0) rotate(90)"/>
      <g>
        <path class="cls-1" d="M92.02,51.48c10.46,0,44.59,2.55,44.59,35.34,0,24.59-20,44.59-44.59,44.59s-44.59-20-44.59-44.59c0-32.79,34.13-35.34,44.59-35.34M92.02,47.63c-26.75,0-48.44,12.43-48.44,39.18s21.69,48.44,48.44,48.44,48.44-21.69,48.44-48.44-21.69-39.18-48.44-39.18h0Z"/>
        <path class="cls-1" d="M104.04,112.87c-9.02,0-16.36-7.34-16.36-16.36s7.34-16.36,16.36-16.36,16.36,7.34,16.36,16.36-7.34,16.36-16.36,16.36ZM104.04,84c-6.9,0-12.51,5.61-12.51,12.51s5.61,12.51,12.51,12.51,12.51-5.61,12.51-12.51-5.61-12.51-12.51-12.51Z"/>
      </g>
    </g>
  </g>
</svg>